<?xml version="1.0" encoding="UTF-8" standalone="no"?>
<svg
   version="1.0"
   width="320"
   height="320"
   viewBox="0 0 240 240"
   preserveAspectRatio="xMidYMid meet"
   id="svg143"
   sodipodi:docname="2.svg"
   inkscape:version="1.1 (c68e22c387, 2021-05-23)"
   xmlns:inkscape="http://www.inkscape.org/namespaces/inkscape"
   xmlns:sodipodi="http://sodipodi.sourceforge.net/DTD/sodipodi-0.dtd"
   xmlns="http://www.w3.org/2000/svg"
   xmlns:svg="http://www.w3.org/2000/svg">
  <defs
     id="defs147" />
  <sodipodi:namedview
     id="namedview145"
     pagecolor="#ffffff"
     bordercolor="#666666"
     borderopacity="1.0"
     inkscape:pageshadow="2"
     inkscape:pageopacity="0.0"
     inkscape:pagecheckerboard="0"
     inkscape:document-units="px"
     showgrid="false"
     units="px"
     inkscape:showpageshadow="false"
     inkscape:zoom="1.1039267"
     inkscape:cx="153.54281"
     inkscape:cy="185.24781"
     inkscape:window-width="1366"
     inkscape:window-height="705"
     inkscape:window-x="-8"
     inkscape:window-y="-8"
     inkscape:window-maximized="1"
     inkscape:current-layer="svg143" />
  <metadata
     id="metadata9">
Created by potrace 1.10, written by Peter Selinger 2001-2011
</metadata>
  <g
     transform="matrix(0.01755796,0,0,-0.01756271,1.6520749,238.74658)"
     fill="#000000"
     stroke="none"
     id="g141">
    <path
       d="m 6424,13491 c 9,-14 -28,-19 -159,-26 -214,-10 -682,-71 -820,-107 -22,-6 -62,-14 -90,-18 -27,-4 -72,-13 -100,-20 -27,-6 -76,-18 -107,-26 -198,-48 -327,-85 -503,-145 -66,-22 -133,-44 -150,-49 -16,-4 -55,-18 -85,-30 -96,-37 -134,-51 -155,-57 -11,-3 -29,-12 -40,-20 -11,-7 -25,-13 -32,-13 -7,0 -43,-14 -80,-31 -38,-16 -81,-36 -98,-44 -147,-65 -291,-136 -445,-218 -140,-74 -135,-72 -293,-167 -60,-36 -116,-70 -125,-75 -15,-9 -90,-59 -277,-185 -432,-291 -1029,-852 -1380,-1295 -22,-27 -42,-52 -45,-55 -8,-6 -211,-280 -225,-302 -5,-9 -46,-70 -90,-135 -44,-65 -84,-126 -90,-135 -5,-9 -30,-50 -54,-90 -25,-40 -51,-84 -59,-98 -7,-14 -22,-38 -32,-55 -23,-37 -33,-54 -100,-180 -75,-141 -148,-289 -215,-440 -8,-16 -28,-60 -44,-98 -17,-37 -31,-73 -31,-80 0,-7 -6,-21 -13,-32 -8,-11 -16,-29 -20,-40 -3,-11 -15,-45 -27,-75 -41,-106 -51,-135 -60,-165 -5,-16 -27,-84 -49,-150 -49,-145 -79,-246 -115,-385 -10,-36 -24,-88 -32,-116 -8,-28 -14,-59 -14,-69 0,-10 -6,-41 -14,-69 -17,-59 -35,-149 -46,-221 -4,-27 -12,-77 -18,-110 C 77,7788 54,7631 39,7510 -7,7132 -11,6446 31,6065 c 6,-55 15,-134 19,-175 11,-106 36,-263 70,-435 7,-33 16,-80 20,-105 4,-25 13,-67 20,-95 6,-27 18,-76 26,-107 39,-162 95,-360 119,-428 7,-19 22,-64 34,-100 35,-112 52,-160 117,-332 9,-24 22,-55 30,-70 8,-14 14,-31 14,-37 0,-6 14,-41 31,-78 16,-38 36,-81 44,-98 93,-209 249,-514 315,-620 10,-16 28,-47 39,-67 11,-21 33,-57 48,-80 36,-56 51,-80 59,-97 6,-12 77,-118 184,-276 44,-65 204,-278 251,-335 346,-416 711,-781 1044,-1045 28,-22 52,-42 55,-45 8,-10 240,-183 295,-220 164,-110 262,-176 277,-185 9,-5 50,-30 90,-54 40,-25 84,-51 98,-59 14,-7 39,-22 55,-32 37,-23 54,-33 180,-100 141,-75 289,-148 440,-215 17,-8 60,-28 98,-44 37,-17 73,-31 80,-31 7,0 21,-6 32,-13 11,-8 29,-16 40,-20 11,-3 45,-15 75,-27 106,-41 135,-51 165,-60 17,-5 84,-27 150,-49 128,-43 184,-61 280,-87 33,-9 83,-22 110,-29 28,-8 77,-20 110,-28 33,-8 80,-20 105,-26 25,-6 73,-16 106,-21 34,-5 74,-14 88,-20 15,-5 41,-10 57,-10 16,0 58,-6 92,-14 117,-27 476,-71 672,-83 166,-10 782,-10 945,0 236,15 667,72 830,109 25,6 65,14 90,18 25,4 68,13 95,20 28,6 76,18 108,26 197,48 326,85 502,145 66,22 134,44 150,49 17,4 55,18 85,30 96,37 134,51 155,57 11,3 29,12 40,20 11,7 25,13 32,13 7,0 43,14 80,31 38,16 82,36 98,44 151,67 299,140 440,215 148,79 141,75 298,170 60,36 116,70 125,75 15,9 115,75 277,185 55,37 287,210 295,220 3,3 28,23 55,45 332,263 766,697 1030,1030 22,28 42,52 45,55 10,8 183,240 220,295 110,164 176,262 185,277 5,9 30,50 54,90 25,40 51,84 59,98 7,14 22,39 32,55 23,37 33,54 100,180 75,141 148,289 215,440 8,17 28,60 44,98 17,37 31,73 31,80 0,7 6,21 13,32 8,11 16,29 20,40 3,11 15,45 27,75 41,106 51,135 60,165 5,17 27,84 49,150 60,177 88,274 144,500 9,33 23,96 32,140 9,44 23,107 30,140 8,33 16,78 19,100 2,22 9,65 15,95 33,175 68,471 76,648 7,129 11,156 26,146 5,-3 9,134 9,326 0,192 -4,329 -9,326 -15,-10 -19,17 -26,146 -6,141 -29,353 -50,479 -8,47 -15,98 -15,113 0,15 -6,55 -14,89 -17,74 -36,174 -46,237 -4,25 -13,68 -20,95 -6,28 -19,77 -27,110 -52,211 -84,322 -144,500 -22,66 -44,134 -49,150 -4,17 -18,55 -30,85 -37,96 -51,134 -57,155 -3,11 -12,29 -20,40 -7,11 -13,25 -13,32 0,7 -14,43 -31,80 -16,38 -36,82 -44,98 -67,151 -140,299 -215,440 -67,126 -77,143 -100,180 -10,17 -25,41 -32,55 -8,14 -34,58 -59,98 -24,40 -49,81 -54,90 -16,27 -139,210 -192,287 -51,74 -202,276 -213,285 -3,3 -23,28 -45,55 -259,327 -702,770 -1030,1030 -27,21 -52,42 -55,45 -8,10 -241,183 -295,220 -27,18 -98,66 -156,105 -59,40 -113,75 -120,79 -8,3 -26,14 -41,24 -22,14 -141,86 -209,127 -133,79 -412,220 -614,310 -16,8 -60,28 -98,44 -37,17 -71,31 -76,31 -5,0 -35,12 -67,26 -33,15 -70,30 -84,34 -14,5 -50,18 -80,30 -30,12 -68,26 -85,30 -16,5 -84,27 -150,49 -178,60 -289,92 -500,144 -33,8 -82,21 -110,27 -27,7 -70,16 -95,20 -96,17 -178,32 -237,46 -34,8 -74,14 -89,14 -15,0 -66,7 -113,15 -126,21 -338,44 -479,50 -129,7 -156,11 -146,26 3,5 -132,9 -321,9 -189,0 -324,-4 -321,-9 z m 816,-106 c 297,-27 497,-53 670,-87 30,-5 78,-14 105,-18 63,-9 145,-27 211,-46 28,-8 59,-14 68,-14 9,0 38,-6 64,-14 26,-8 76,-22 112,-31 144,-39 176,-48 210,-60 19,-7 62,-20 95,-30 33,-9 71,-22 85,-27 14,-5 56,-20 95,-33 38,-13 95,-33 125,-45 30,-12 67,-25 81,-30 14,-4 34,-12 45,-18 10,-6 75,-34 144,-62 123,-51 484,-226 610,-295 36,-20 129,-75 208,-123 79,-48 151,-92 160,-97 9,-6 44,-28 77,-51 33,-22 83,-56 110,-74 28,-19 84,-59 125,-90 41,-30 85,-62 96,-70 122,-84 370,-292 536,-449 44,-41 87,-81 97,-88 17,-11 274,-281 362,-378 92,-103 284,-340 339,-419 8,-11 46,-64 85,-118 141,-194 294,-432 395,-613 82,-147 251,-493 309,-630 34,-82 67,-159 73,-169 6,-11 14,-31 18,-45 5,-14 18,-51 30,-81 12,-30 32,-87 45,-125 13,-39 28,-81 33,-95 5,-14 18,-52 27,-85 10,-33 23,-76 30,-95 13,-35 27,-85 59,-210 10,-36 24,-85 32,-110 8,-25 14,-54 14,-64 0,-11 6,-42 14,-70 8,-28 22,-89 31,-136 9,-47 22,-113 30,-147 8,-34 15,-74 15,-89 0,-16 6,-62 14,-104 17,-86 40,-273 58,-475 17,-187 17,-872 0,-1070 -20,-235 -52,-475 -83,-635 -6,-30 -15,-77 -19,-105 -9,-63 -27,-145 -46,-211 -8,-28 -14,-59 -14,-68 0,-9 -6,-38 -14,-64 -8,-26 -22,-76 -31,-112 -24,-94 -46,-170 -60,-210 -7,-19 -20,-62 -30,-95 -9,-33 -22,-71 -27,-85 -5,-14 -20,-56 -33,-95 -13,-38 -33,-95 -45,-125 -12,-30 -25,-67 -30,-81 -4,-14 -12,-34 -18,-45 -6,-10 -34,-75 -62,-144 -55,-133 -236,-505 -295,-605 -19,-33 -38,-67 -41,-75 -4,-8 -43,-75 -88,-148 -45,-73 -86,-141 -91,-150 -6,-9 -28,-44 -51,-77 -22,-33 -56,-82 -74,-110 -63,-93 -299,-404 -382,-502 -95,-114 -126,-149 -227,-255 -41,-44 -81,-87 -88,-97 -11,-17 -281,-274 -378,-362 -104,-93 -345,-288 -419,-339 -11,-8 -55,-40 -96,-70 -41,-31 -97,-71 -125,-90 -27,-18 -77,-52 -110,-74 -33,-23 -68,-45 -77,-51 -9,-5 -77,-46 -150,-91 -73,-45 -140,-84 -148,-88 -8,-3 -42,-22 -75,-41 -100,-59 -472,-240 -605,-295 -69,-28 -134,-56 -144,-62 -11,-6 -31,-14 -45,-18 -14,-5 -51,-18 -81,-30 -30,-12 -87,-32 -125,-45 -39,-13 -81,-28 -95,-33 -14,-5 -52,-18 -85,-27 -33,-10 -76,-23 -95,-30 -35,-13 -92,-29 -210,-59 -36,-9 -86,-23 -111,-31 -26,-8 -55,-15 -64,-15 -10,0 -41,-6 -69,-14 C 8025,190 7645,132 7240,95 7017,75 6462,75 6240,95 c -236,21 -423,44 -510,60 -42,8 -88,15 -104,15 -15,0 -55,7 -89,15 -34,8 -100,21 -147,30 -47,9 -108,23 -136,31 -28,8 -59,14 -70,14 -10,0 -39,6 -64,14 -25,8 -70,21 -100,29 -146,38 -188,50 -220,62 -19,7 -62,20 -95,30 -33,9 -71,22 -85,27 -14,5 -56,20 -95,33 -38,13 -95,33 -125,45 -30,12 -67,25 -81,30 -14,4 -34,12 -45,18 -10,6 -91,41 -179,78 -88,37 -250,113 -360,169 -238,121 -261,134 -433,239 -73,44 -141,86 -150,91 -9,6 -44,28 -77,51 -33,22 -82,56 -110,74 -27,19 -84,59 -125,90 -41,30 -85,62 -96,70 -125,86 -374,296 -541,454 -46,44 -92,85 -102,92 -16,12 -262,270 -352,369 -125,140 -394,485 -499,640 -18,28 -52,77 -74,110 -23,33 -45,68 -51,77 -5,9 -49,81 -97,160 -48,79 -103,172 -123,208 -69,126 -244,487 -295,610 -28,69 -56,134 -62,144 -6,11 -14,31 -18,45 -5,14 -18,51 -30,81 -12,30 -32,87 -45,125 -13,39 -28,81 -33,95 -6,14 -24,72 -42,130 -46,155 -56,188 -75,260 -9,36 -23,86 -31,112 -8,26 -14,55 -14,64 0,9 -6,40 -14,68 -8,28 -22,89 -31,136 -9,47 -22,113 -30,147 -8,34 -15,74 -15,89 0,16 -7,62 -15,104 -15,80 -37,262 -57,480 -17,181 -17,879 0,1065 18,202 41,389 58,475 8,42 14,88 14,103 0,15 6,56 14,90 8,34 22,100 31,147 9,47 23,108 31,136 8,28 14,59 14,69 0,9 7,38 15,64 8,25 22,75 31,111 9,36 22,85 30,110 39,135 77,258 86,280 5,14 20,56 33,95 13,38 33,95 45,125 12,30 25,67 30,81 4,14 12,34 18,45 6,10 34,75 62,144 55,133 236,505 295,605 19,33 38,67 41,75 4,8 44,75 88,148 45,73 86,141 91,150 6,10 21,33 35,52 14,19 30,42 35,52 20,35 90,135 145,208 30,41 62,85 70,96 54,78 169,221 323,399 75,86 356,383 378,398 10,7 53,47 96,88 152,144 420,368 537,449 11,8 55,40 96,70 41,31 98,71 125,90 28,18 77,52 110,74 33,23 68,45 77,51 9,5 77,46 150,91 73,44 140,84 148,88 8,3 42,22 75,41 100,59 472,240 605,295 69,28 134,56 144,62 11,6 31,14 45,18 14,5 51,18 81,30 30,12 87,32 125,45 39,13 81,28 95,33 14,5 52,18 85,27 33,10 76,23 95,30 35,13 92,29 210,59 36,9 86,23 111,31 26,8 55,15 64,15 10,0 41,6 69,14 28,8 89,22 136,31 47,9 117,22 155,30 150,30 399,63 675,89 208,20 810,20 1020,1 z"
       id="path11" />
    <path
       d="m 6205,13076 c -17,-12 -18,-18 -7,-40 10,-23 17,-26 66,-26 53,0 56,-1 100,-52 25,-29 46,-60 46,-68 0,-9 7,-25 15,-36 8,-10 15,-34 15,-51 0,-32 -1,-33 -45,-33 -32,0 -51,-6 -66,-21 -18,-18 -23,-19 -37,-6 -18,15 -55,13 -264,-19 -53,-7 -112,-14 -130,-14 -53,0 -318,-39 -374,-55 -17,-6 -34,11 -102,103 -44,60 -97,121 -116,136 -32,24 -43,27 -108,24 -78,-3 -92,-14 -59,-47 18,-18 29,-20 74,-15 47,5 56,3 93,-24 43,-31 114,-112 114,-129 0,-6 6,-16 14,-23 18,-14 11,-37 -15,-45 -22,-7 -56,9 -85,41 -12,12 -42,38 -68,58 -38,29 -56,36 -92,36 -54,0 -84,-14 -84,-39 0,-20 46,-46 55,-31 4,6 27,10 52,10 35,0 58,-8 95,-31 26,-17 48,-35 48,-40 0,-21 -60,-46 -190,-79 -19,-5 -66,-18 -105,-30 -38,-12 -86,-25 -105,-30 -171,-44 -201,-60 -181,-99 8,-14 21,-21 42,-21 32,0 34,-3 65,-107 10,-34 25,-70 34,-80 40,-48 149,-113 190,-113 26,0 25,-12 -5,-59 -39,-62 -41,-86 -11,-107 15,-9 29,-14 32,-11 8,8 60,103 86,160 13,26 27,47 33,47 6,0 18,-22 28,-49 11,-32 29,-58 53,-76 48,-37 62,-23 41,42 -9,26 -23,75 -33,108 -9,33 -23,80 -30,105 -7,25 -20,72 -30,105 -9,33 -23,78 -31,100 -14,37 -13,40 7,57 12,10 38,20 58,24 20,4 42,10 47,14 6,4 25,11 43,15 30,6 33,4 46,-27 8,-18 17,-51 21,-73 8,-47 31,-157 51,-237 8,-32 14,-70 14,-86 0,-32 54,-92 83,-92 19,0 17,34 -8,140 -7,30 -20,91 -30,135 -9,44 -23,106 -31,137 -17,71 -18,127 -1,132 27,8 205,36 255,39 57,4 82,-9 82,-43 0,-19 -32,-35 -95,-45 -48,-8 -75,-30 -75,-61 0,-27 44,-82 76,-94 20,-8 22,-13 13,-42 -5,-18 -9,-39 -9,-45 0,-16 69,-93 83,-93 6,0 19,-8 29,-17 14,-13 37,-17 89,-17 63,1 74,4 109,33 46,37 60,39 60,8 0,-25 71,-102 83,-91 11,11 9,59 -8,174 -39,282 -47,347 -44,365 3,16 14,21 60,25 31,3 63,11 71,17 8,7 17,10 20,7 4,-3 28,-8 55,-12 l 48,-7 5,-247 c 5,-244 5,-247 29,-272 14,-15 30,-25 35,-23 7,2 13,97 16,273 l 5,269 78,3 c 50,2 84,-1 93,-9 11,-9 14,-57 14,-245 v -234 l 29,-32 c 16,-18 33,-30 37,-26 4,4 6,124 5,266 -2,216 0,260 12,271 10,8 48,11 118,9 l 104,-3 3,-109 3,-108 -43,6 c -90,14 -97,-35 -17,-113 42,-40 88,-59 110,-46 6,4 17,22 25,41 20,47 19,239 -1,278 -29,55 -23,60 63,52 98,-8 119,-14 124,-34 3,-10 -1,-71 -8,-137 -7,-66 -13,-172 -13,-235 0,-107 1,-117 24,-145 13,-16 28,-26 32,-22 10,10 20,113 32,336 7,119 15,189 23,199 11,12 30,14 113,8 55,-3 118,-11 140,-16 22,-6 74,-14 114,-19 82,-10 103,-25 96,-70 -2,-14 -12,-70 -21,-124 -18,-97 -19,-99 -54,-114 -67,-29 -142,-16 -182,31 -50,60 17,142 100,122 72,-18 82,-19 82,-3 0,38 -22,65 -59,71 -98,16 -162,-1 -185,-48 -15,-31 -15,-38 1,-87 34,-109 94,-161 193,-169 l 65,-5 -3,-66 c -4,-60 -1,-69 22,-94 17,-18 30,-25 36,-19 5,5 14,43 20,84 7,41 19,109 28,150 15,65 21,77 51,97 77,52 177,4 167,-79 -6,-56 -36,-91 -90,-106 -50,-13 -54,-20 -30,-57 22,-34 61,-32 112,4 54,40 68,83 52,162 -7,32 -19,64 -26,70 -8,6 -14,17 -14,23 0,7 -16,27 -35,46 -33,32 -40,34 -95,33 l -61,-2 7,52 c 4,29 10,56 15,61 5,5 44,2 96,-7 48,-9 124,-22 167,-29 55,-9 80,-17 83,-28 2,-8 22,-23 45,-32 37,-16 40,-20 34,-45 -12,-51 -25,-97 -40,-148 -8,-27 -22,-77 -31,-110 -10,-33 -24,-82 -31,-110 -21,-72 -5,-145 32,-145 8,0 16,12 19,28 3,15 11,43 17,62 6,19 15,51 19,70 4,19 15,58 23,85 45,147 58,193 64,225 7,34 9,35 52,33 25,-1 56,-3 70,-5 22,-3 25,1 25,31 0,32 -2,34 -48,46 -27,7 -52,16 -57,21 -6,6 -17,48 -26,94 -9,47 -22,98 -30,113 -8,16 -14,36 -14,46 0,26 -81,108 -119,120 -84,27 -158,3 -187,-61 -15,-33 -15,-44 -4,-85 7,-26 19,-55 27,-64 7,-8 13,-21 13,-27 0,-7 7,-12 15,-12 8,0 15,8 15,19 0,10 -7,24 -15,31 -23,19 -18,71 10,105 22,26 30,29 79,29 64,-1 107,-26 144,-82 20,-30 22,-45 20,-111 l -3,-76 -53,-3 c -48,-3 -53,-1 -62,22 -10,27 -24,32 -105,40 -27,2 -75,9 -105,15 -30,5 -100,17 -155,26 -55,9 -138,23 -185,31 -47,8 -115,16 -152,19 -37,2 -73,7 -79,11 -6,4 -74,9 -151,12 -124,4 -142,7 -159,25 -10,12 -19,29 -19,40 0,27 -196,220 -251,245 -32,16 -64,22 -111,22 -56,0 -71,-4 -105,-29 -32,-23 -41,-37 -46,-69 -9,-53 5,-123 31,-159 12,-17 19,-33 15,-37 -3,-3 -50,-6 -103,-6 -100,0 -120,7 -120,43 0,10 -6,31 -14,45 -7,15 -22,45 -32,67 -30,64 -84,135 -115,150 -35,19 -80,19 -104,1 z m 727,-88 c 48,-24 211,-184 205,-202 -2,-7 -65,-12 -198,-14 -191,-2 -194,-2 -211,20 -20,26 -25,127 -7,159 31,58 134,76 211,37 z m -854,-340 c 13,-16 29,-109 37,-220 8,-100 4,-108 -66,-161 -59,-44 -121,-64 -153,-49 -31,14 -58,54 -51,74 8,20 48,38 85,38 38,0 41,31 5,54 -21,14 -32,15 -70,5 -42,-11 -48,-10 -70,11 -32,30 -32,63 -2,77 13,6 51,14 83,18 32,4 62,12 65,17 3,5 2,32 -3,59 -12,64 -2,77 65,82 29,2 55,4 58,5 4,1 11,-4 17,-10 z m -938,-198 c 8,-16 25,-78 42,-153 10,-44 9,-50 -13,-74 -41,-44 -101,-83 -129,-83 -30,0 -65,33 -73,70 -5,22 -38,136 -53,182 -6,18 40,48 74,48 11,0 35,7 53,15 41,18 89,15 99,-5 z"
       id="path13" />
    <path
       d="m 8950,12315 c -11,-20 -11,-27 0,-40 7,-8 18,-15 25,-15 8,0 26,-6 42,-14 15,-8 41,-20 57,-27 16,-8 30,-19 33,-25 7,-18 -86,-204 -102,-204 -19,0 -45,28 -45,49 0,43 -54,55 -72,16 -11,-25 -7,-53 24,-140 5,-16 14,-46 18,-65 4,-19 13,-48 19,-65 6,-16 19,-55 30,-85 12,-35 25,-56 36,-59 16,-3 17,2 11,39 -4,23 -13,55 -21,71 -8,15 -15,35 -15,44 0,9 -7,27 -16,40 -8,13 -14,34 -12,47 3,20 8,23 38,20 27,-2 44,4 73,28 20,17 37,37 37,44 0,8 11,39 25,71 19,42 24,66 19,91 -6,30 -4,34 16,34 12,0 36,-7 53,-16 73,-38 86,-44 99,-44 8,0 24,-10 36,-23 l 22,-23 -30,-59 c -16,-32 -30,-63 -30,-68 0,-25 -43,-67 -68,-67 -31,0 -91,34 -110,61 -19,27 -32,23 -32,-9 0,-37 60,-100 102,-109 16,-3 32,-11 35,-18 2,-7 -10,-43 -27,-80 -27,-58 -31,-74 -25,-116 4,-27 11,-51 15,-54 9,-6 50,42 50,58 0,6 9,29 19,51 11,23 31,68 46,101 15,33 36,78 46,100 10,22 31,72 48,110 29,69 51,89 74,66 6,-6 18,-11 26,-11 8,0 28,-12 44,-27 27,-27 98,-72 145,-93 29,-12 28,-20 -9,-88 -55,-103 -65,-117 -87,-120 -18,-3 -26,5 -43,42 -35,80 -86,51 -74,-42 7,-55 31,-166 51,-238 8,-28 14,-62 14,-76 0,-31 26,-56 42,-40 11,11 1,67 -28,161 -8,25 -14,57 -14,73 0,26 3,28 41,28 49,0 95,25 109,59 5,15 21,46 35,70 14,25 25,60 25,81 0,20 3,39 6,43 6,5 89,-36 109,-54 26,-24 72,4 61,38 -3,11 -30,31 -59,46 -28,15 -79,43 -112,61 -33,19 -84,46 -112,61 -29,14 -60,37 -69,50 -9,14 -21,25 -27,25 -5,0 -35,12 -66,26 -31,14 -76,35 -101,46 -25,10 -58,25 -75,33 -42,19 -215,96 -275,122 -19,9 -43,20 -52,24 -27,13 -33,11 -48,-16 z"
       id="path15" />
    <path
       d="m 9512,12323 c -32,-6 -36,-24 -18,-68 15,-35 18,-37 48,-31 37,7 58,23 53,39 -2,7 -6,24 -9,40 -7,28 -17,31 -74,20 z"
       id="path17" />
    <path
       d="m 4290,12258 c -36,-17 -103,-48 -150,-70 -138,-64 -181,-86 -250,-124 -36,-20 -85,-47 -110,-61 -25,-13 -58,-32 -75,-42 -16,-10 -57,-32 -90,-50 -33,-18 -71,-44 -85,-58 -14,-13 -63,-50 -110,-80 -47,-31 -104,-70 -128,-87 -23,-17 -79,-57 -125,-89 -45,-31 -112,-79 -149,-105 -36,-26 -76,-54 -87,-62 -26,-18 -26,-32 -2,-54 22,-20 12,-25 211,115 173,122 233,160 245,156 6,-3 38,-44 71,-91 100,-147 96,-138 82,-186 -7,-23 -31,-62 -54,-86 -33,-36 -47,-44 -77,-44 -57,0 -87,39 -87,112 0,53 2,58 36,87 24,19 35,35 31,45 -12,31 -58,18 -131,-37 -39,-29 -97,-70 -129,-91 -37,-25 -57,-44 -55,-55 5,-28 46,-24 90,8 49,36 68,39 68,11 0,-36 28,-77 64,-94 23,-11 61,-16 119,-16 77,0 87,2 125,30 23,16 44,41 48,55 8,33 28,32 55,-4 22,-30 87,-58 113,-48 13,5 5,22 -41,86 -32,43 -78,109 -103,145 -25,37 -66,95 -92,130 -65,88 -68,105 -22,136 20,13 41,34 47,47 6,13 16,23 24,23 13,0 52,20 168,87 22,12 47,26 55,30 8,4 37,20 64,35 27,16 54,27 60,25 6,-3 27,-34 46,-71 40,-76 41,-74 -55,-126 -164,-88 -195,-111 -195,-145 0,-12 10,-31 23,-42 29,-27 114,-65 135,-61 23,4 27,52 8,80 -22,32 -20,61 7,74 12,5 50,25 85,44 73,40 70,41 126,-65 21,-38 51,-82 67,-97 29,-28 75,-46 87,-34 6,7 -14,50 -54,116 -11,19 -37,65 -57,103 -20,37 -53,97 -73,134 -57,103 -64,117 -64,129 0,19 75,65 145,90 52,18 64,18 72,-3 3,-10 17,-43 30,-73 14,-30 34,-75 45,-100 11,-25 26,-58 34,-75 7,-16 27,-62 44,-100 31,-69 67,-105 106,-105 18,0 18,31 -1,67 -8,15 -26,55 -41,88 -14,33 -34,79 -45,103 -10,23 -28,61 -38,85 -11,23 -31,69 -46,101 l -28,59 24,18 c 13,10 32,19 43,21 10,2 25,12 32,23 11,17 10,23 -4,42 l -17,21 z"
       id="path19" />
    <path
       d="m 9986,11749 c -14,-17 -26,-43 -26,-57 0,-42 26,-107 44,-110 14,-3 15,3 10,36 -5,32 -2,44 15,61 25,25 68,27 99,5 35,-24 28,-49 -36,-131 -31,-41 -36,-43 -84,-43 -40,0 -62,7 -99,31 -39,25 -51,28 -68,19 -26,-13 -73,9 -97,45 -21,32 -34,32 -34,-1 0,-41 35,-89 80,-109 38,-17 40,-20 40,-62 0,-60 34,-151 70,-188 35,-36 119,-69 156,-62 36,7 40,-14 9,-59 -16,-24 -24,-46 -21,-59 3,-11 6,-28 6,-38 0,-55 66,24 257,310 38,56 75,102 84,102 36,2 169,-113 169,-145 0,-12 -35,-56 -112,-139 -20,-22 -73,-83 -117,-135 -73,-86 -81,-99 -81,-137 0,-23 5,-45 11,-48 5,-4 25,10 42,31 18,21 64,74 102,118 39,44 103,118 144,165 40,47 77,87 81,89 9,3 118,-88 225,-189 39,-36 91,-85 118,-109 26,-23 47,-46 47,-50 0,-14 -101,-120 -114,-120 -6,0 -58,45 -116,100 -92,87 -109,99 -141,100 -50,0 -72,-41 -67,-125 3,-51 6,-60 23,-63 12,-2 32,9 50,28 16,16 36,30 45,30 9,0 47,-29 85,-64 80,-74 81,-62 -25,-176 -56,-60 -60,-68 -60,-112 0,-26 3,-49 8,-51 4,-2 40,32 81,77 219,238 286,306 301,306 9,0 29,-13 45,-30 34,-36 60,-38 76,-8 11,20 6,27 -52,81 -35,33 -122,115 -194,182 -71,67 -166,153 -210,191 -43,38 -91,80 -105,93 -14,13 -44,37 -67,54 -24,17 -50,41 -58,53 -8,13 -41,41 -73,62 -31,21 -78,53 -105,71 -50,35 -73,37 -91,8 -9,-15 -6,-23 22,-45 18,-15 32,-34 32,-42 -1,-20 -124,-191 -151,-210 -15,-10 -48,-15 -99,-15 -67,0 -82,4 -118,27 -33,22 -44,38 -58,83 -16,48 -16,57 -3,70 12,12 20,12 58,-5 92,-42 160,-13 221,94 32,55 36,85 19,137 -15,44 -36,67 -81,90 -53,27 -82,24 -112,-12 z"
       id="path21" />
    <path
       d="m 6370,11698 c -194,-14 -485,-55 -602,-84 -32,-8 -67,-14 -79,-14 -12,0 -45,-6 -73,-14 -28,-8 -80,-22 -116,-31 -36,-9 -85,-22 -110,-29 -126,-37 -167,-49 -190,-58 -14,-6 -38,-14 -55,-19 -29,-7 -54,-16 -165,-59 -30,-12 -69,-26 -87,-31 -18,-5 -35,-14 -38,-19 -4,-6 -13,-10 -21,-10 -25,0 -404,-183 -529,-255 -33,-19 -69,-39 -80,-45 -11,-6 -33,-19 -50,-30 -16,-11 -37,-23 -45,-27 -68,-35 -338,-225 -480,-339 -338,-269 -687,-630 -896,-924 -21,-30 -41,-57 -45,-60 -8,-6 -193,-281 -202,-301 -4,-8 -16,-27 -27,-44 -11,-16 -24,-39 -30,-50 -6,-11 -26,-47 -45,-80 -72,-125 -255,-504 -255,-529 0,-8 -4,-17 -10,-21 -5,-3 -14,-20 -19,-38 -5,-18 -19,-57 -31,-87 -43,-111 -52,-136 -59,-165 -5,-16 -13,-41 -18,-55 -16,-39 -59,-187 -88,-300 -9,-36 -23,-88 -31,-116 -8,-28 -14,-61 -14,-73 0,-12 -6,-47 -14,-79 -32,-127 -70,-406 -85,-627 -34,-469 12,-1054 115,-1467 56,-229 96,-368 120,-426 8,-18 14,-39 14,-47 0,-8 6,-29 14,-47 14,-33 36,-89 63,-163 8,-22 21,-53 28,-70 7,-16 21,-50 30,-75 26,-65 199,-414 240,-485 19,-33 39,-69 45,-80 6,-11 19,-33 30,-50 11,-16 23,-37 27,-45 10,-21 165,-251 222,-328 345,-472 775,-881 1286,-1220 111,-74 133,-88 155,-98 8,-4 33,-19 55,-33 93,-58 459,-243 565,-286 25,-9 59,-23 75,-30 17,-7 49,-20 73,-29 105,-40 129,-49 160,-62 18,-8 39,-14 47,-14 8,0 29,-6 47,-14 41,-17 189,-61 308,-91 36,-9 88,-23 116,-31 28,-8 61,-14 73,-14 12,0 47,-6 79,-14 125,-31 407,-69 632,-86 459,-33 1052,14 1463,116 228,56 367,96 425,120 18,8 39,14 47,14 8,0 29,6 47,14 31,13 55,22 161,62 23,9 56,22 72,29 17,7 50,21 75,30 65,26 414,199 485,240 33,19 69,40 80,45 21,11 29,16 115,70 596,374 1107,869 1498,1450 53,79 100,151 105,160 4,8 16,29 27,45 11,17 24,39 30,50 6,11 26,47 45,80 41,71 214,420 240,485 9,25 23,59 30,75 7,17 20,49 29,73 40,105 49,129 62,160 8,18 14,39 14,47 0,8 6,29 14,47 17,40 61,189 90,306 39,154 45,182 60,257 130,678 130,1292 0,1970 -9,44 -22,106 -30,138 -36,144 -46,185 -58,227 -8,25 -21,72 -31,105 -10,33 -24,75 -31,93 -8,18 -14,39 -14,47 0,8 -6,29 -14,47 -13,31 -22,55 -62,161 -9,23 -22,56 -29,72 -7,17 -21,50 -30,75 -22,54 -194,405 -233,475 -28,50 -66,114 -90,150 -6,11 -15,27 -19,35 -6,13 -53,83 -183,275 -19,28 -77,104 -128,170 -345,440 -738,802 -1207,1111 -49,32 -97,62 -105,67 -8,4 -28,16 -45,27 -16,11 -39,24 -50,30 -11,6 -47,26 -80,45 -71,41 -420,214 -485,240 -25,9 -58,23 -75,30 -29,13 -76,31 -160,62 -22,8 -55,21 -73,29 -18,8 -39,14 -47,14 -8,0 -29,6 -47,14 -40,17 -189,61 -305,90 -144,36 -182,45 -253,59 -431,85 -934,117 -1360,85 z m 770,-83 c 390,-39 649,-87 973,-180 61,-18 256,-81 289,-94 13,-5 41,-16 63,-24 54,-20 187,-75 260,-106 104,-45 405,-200 470,-241 17,-11 37,-23 45,-27 17,-7 128,-78 208,-132 30,-20 61,-40 70,-46 55,-34 314,-234 407,-313 142,-123 408,-388 510,-508 44,-53 89,-105 99,-117 86,-100 374,-512 407,-582 5,-11 18,-33 29,-50 10,-16 25,-41 33,-55 31,-55 184,-359 208,-415 31,-73 86,-206 106,-260 8,-22 19,-50 24,-63 5,-12 25,-71 44,-130 120,-369 177,-642 226,-1082 21,-183 23,-652 5,-840 -39,-400 -86,-654 -181,-982 -18,-62 -81,-257 -94,-290 -5,-13 -16,-41 -24,-63 -73,-195 -216,-503 -302,-650 -19,-33 -39,-69 -45,-80 -5,-11 -16,-29 -22,-40 -7,-11 -33,-51 -57,-90 -89,-142 -138,-213 -237,-345 -56,-74 -110,-145 -120,-157 -11,-12 -55,-64 -99,-116 -102,-121 -379,-397 -515,-513 -127,-109 -310,-248 -461,-349 -61,-41 -113,-75 -115,-75 -1,0 -22,-12 -46,-27 -69,-45 -82,-52 -103,-63 -11,-6 -47,-26 -80,-45 -147,-86 -455,-229 -650,-302 -22,-8 -50,-19 -63,-24 -32,-13 -227,-76 -292,-95 -290,-84 -504,-126 -910,-175 -170,-20 -662,-23 -849,-5 -399,39 -656,86 -983,181 -70,20 -257,80 -288,93 -14,5 -43,17 -65,25 -193,73 -488,209 -650,301 -33,19 -78,44 -100,56 -22,12 -59,35 -83,51 -24,16 -45,29 -47,29 -16,0 -426,295 -495,356 -14,12 -63,55 -110,95 -109,93 -386,370 -479,479 -40,47 -83,96 -95,110 -24,27 -224,295 -241,322 -5,9 -32,49 -60,90 -27,40 -52,78 -55,83 -5,10 -42,70 -68,110 -6,11 -17,29 -22,40 -6,11 -26,47 -45,80 -86,147 -229,455 -302,650 -8,22 -19,50 -24,63 -36,93 -117,363 -152,507 -191,782 -181,1650 28,2420 30,112 100,335 124,397 5,13 16,41 24,63 73,195 216,503 302,650 19,33 39,69 45,80 11,21 18,34 63,103 15,24 27,45 27,47 0,16 296,427 356,495 12,14 53,61 90,105 98,116 379,397 491,490 52,44 103,87 112,96 43,42 471,349 486,349 2,0 23,12 47,28 69,44 82,51 103,62 11,6 47,26 80,45 147,86 455,229 650,302 22,8 51,20 65,25 31,12 216,72 290,94 304,88 576,139 950,178 190,19 627,20 820,1 z"
       id="path23" />
    <path
       d="m 4685,9368 c -3,-7 -4,-287 -3,-623 l 3,-610 h 570 570 l 3,614 c 2,485 0,616 -10,623 -7,4 -264,8 -571,8 -437,0 -559,-3 -562,-12 z"
       id="path25" />
    <path
       d="m 6145,9368 c -3,-7 -4,-287 -3,-623 l 3,-610 568,-3 567,-2 -2,622 -3,623 -563,3 c -445,2 -564,0 -567,-10 z"
       id="path27" />
    <path
       d="m 7602,9368 c -17,-17 -17,-1209 0,-1226 9,-9 150,-12 574,-12 503,0 562,2 568,16 3,9 6,284 6,613 0,451 -3,600 -12,609 -17,17 -1119,17 -1136,0 z"
       id="path29" />
    <path
       d="m 3232,7848 c -9,-9 -12,-426 -11,-1852 1,-1013 4,-1852 8,-1866 l 7,-25 h 564 565 v 1875 1875 l -560,3 c -428,2 -564,-1 -573,-10 z"
       id="path31" />
    <path
       d="m 4685,7848 c -3,-7 -4,-852 -3,-1878 l 3,-1865 550,-3 c 303,-1 560,0 573,3 l 22,5 v 1869 c 0,1695 -1,1869 -16,1875 -9,3 -265,6 -570,6 -435,0 -556,-3 -559,-12 z"
       id="path33" />
    <path
       d="m 6145,7848 c -3,-7 -4,-852 -3,-1878 l 3,-1865 h 565 565 v 1875 1875 l -563,3 c -445,2 -564,0 -567,-10 z"
       id="path35" />
    <path
       d="m 7602,7848 c -9,-9 -12,-436 -12,-1860 0,-1607 2,-1848 14,-1848 8,0 36,30 62,68 26,37 78,110 116,162 160,225 297,418 383,540 25,36 78,111 118,166 40,56 101,143 137,194 36,50 99,139 140,196 41,57 96,135 122,172 89,128 202,287 257,365 145,202 318,445 516,727 41,58 101,143 135,190 33,47 91,128 128,180 37,52 92,129 122,170 30,41 72,102 95,135 23,33 74,105 113,160 147,207 193,276 187,285 -10,16 -2618,13 -2633,-2 z"
       id="path37" />
    <path
       d="m 2790,11307 c -441,-423 -424,-405 -412,-432 6,-14 17,-25 23,-25 7,0 43,27 80,60 37,33 70,60 73,60 11,0 136,-135 142,-153 9,-27 -14,-47 -55,-47 -47,0 -63,-15 -49,-45 8,-18 24,-26 72,-35 66,-12 346,-31 359,-23 4,2 7,10 7,17 0,14 -88,26 -199,26 h -63 l 7,28 c 4,15 9,45 10,67 2,22 3,45 4,52 1,6 13,11 29,11 53,-1 91,14 121,48 17,19 34,34 38,34 4,0 35,-27 69,-61 49,-49 69,-62 101,-66 25,-3 43,-1 47,6 5,7 -66,88 -176,202 -101,105 -184,195 -186,199 -2,5 13,26 32,48 41,44 45,67 17,82 -11,5 -21,10 -23,10 -2,0 -32,-28 -68,-63 z m 115,-310 c -9,-41 -31,-66 -73,-84 -18,-7 -35,-20 -39,-28 -8,-23 -16,-19 -81,45 -34,33 -70,60 -81,60 -10,0 -24,6 -30,14 -9,11 6,30 76,95 l 87,82 73,-76 c 69,-71 74,-79 68,-108 z"
       id="path39" />
    <path
       d="m 3192,10789 c -43,-13 -111,-84 -114,-118 -6,-85 9,-111 79,-137 37,-14 50,-15 83,-5 61,18 110,66 110,106 0,36 -21,60 -45,51 -8,-3 -15,-18 -15,-34 0,-29 -25,-59 -69,-82 -20,-10 -26,-9 -52,16 -34,33 -37,65 -9,104 36,51 79,70 159,70 60,0 80,-5 128,-30 31,-16 62,-30 69,-30 18,0 19,49 2,54 -7,2 -35,10 -63,19 -62,20 -219,30 -263,16 z"
       id="path41" />
    <path
       d="m 2046,10543 c -20,-25 -188,-253 -208,-283 -9,-14 -44,-62 -76,-106 -33,-45 -62,-93 -65,-106 -4,-14 -20,-40 -36,-57 -26,-28 -31,-29 -62,-21 -19,6 -85,10 -147,10 -152,0 -192,-20 -241,-117 -25,-51 -27,-90 -4,-123 36,-52 53,-59 136,-60 71,0 82,4 75,28 -2,4 -21,6 -43,4 -60,-5 -98,31 -98,91 0,93 61,147 167,147 70,0 146,-29 146,-56 0,-17 -41,-98 -52,-102 -5,-2 -20,-27 -34,-55 -14,-29 -40,-79 -58,-112 -18,-33 -54,-100 -80,-150 -26,-49 -58,-101 -71,-115 -13,-14 -36,-54 -50,-90 -15,-36 -32,-78 -40,-95 -7,-16 -20,-50 -30,-75 -9,-25 -22,-56 -28,-70 -18,-41 -36,-91 -62,-165 -13,-38 -33,-95 -45,-125 -12,-30 -26,-73 -31,-95 -5,-22 -13,-51 -18,-65 -4,-14 -16,-52 -26,-85 -10,-33 -24,-79 -33,-102 -8,-23 -12,-50 -8,-59 3,-9 -3,-27 -14,-41 -11,-14 -20,-39 -20,-54 0,-24 4,-29 23,-29 31,0 53,26 61,74 4,21 15,54 24,73 15,32 19,34 52,30 58,-9 143,-36 159,-52 13,-13 13,-21 -2,-68 -9,-30 -17,-65 -17,-79 0,-44 -19,-51 -107,-37 -150,23 -226,-12 -259,-117 -21,-64 -13,-101 27,-123 38,-21 89,-7 142,39 40,36 76,94 65,105 -3,3 -27,-15 -54,-40 -59,-54 -103,-61 -130,-19 -16,23 -16,28 -1,59 9,20 26,37 39,40 36,9 226,-29 239,-48 4,-6 3,-22 -3,-38 -13,-37 5,-69 37,-69 36,0 153,58 171,84 21,34 9,53 -47,71 -27,9 -52,21 -55,26 -6,10 21,141 36,169 9,18 58,15 109,-6 48,-20 114,-18 141,4 26,21 20,42 -10,42 -11,0 -37,6 -57,14 -21,7 -65,22 -98,31 -33,10 -78,24 -100,30 -22,7 -67,21 -100,30 -89,26 -135,47 -135,60 0,7 7,29 15,48 8,20 15,46 15,58 0,37 31,91 49,85 9,-2 61,-21 116,-41 55,-20 111,-40 125,-45 14,-5 50,-18 80,-30 83,-33 117,-39 154,-29 56,16 54,49 -4,62 -14,3 -50,15 -80,26 -102,40 -135,52 -165,61 -16,4 -55,18 -85,30 -30,12 -69,26 -87,31 -39,12 -46,30 -29,72 32,75 76,194 76,204 0,5 9,18 20,28 16,14 25,16 43,8 63,-29 99,-43 110,-43 7,0 25,-11 42,-24 25,-20 28,-26 16,-40 -7,-9 -25,-22 -39,-29 -60,-29 -53,-83 9,-81 19,1 59,11 89,23 30,12 66,26 80,31 14,5 50,18 80,30 30,12 68,26 84,30 34,11 68,39 60,51 -8,14 -39,11 -81,-7 -21,-9 -51,-22 -68,-29 -16,-7 -47,-20 -68,-29 -47,-20 -57,-15 -57,31 0,28 -8,43 -36,69 -19,19 -43,34 -52,34 -10,0 -29,8 -42,17 -16,11 -44,17 -82,18 -32,0 -58,4 -58,10 2,39 24,87 72,160 25,38 81,139 129,233 12,24 27,46 34,48 15,6 53,-9 83,-34 l 24,-18 -46,-87 c -38,-72 -46,-96 -46,-141 0,-43 5,-60 25,-84 28,-33 114,-62 184,-62 62,0 181,29 181,45 0,10 -28,12 -122,11 -116,-1 -125,0 -156,24 -32,24 -49,60 -43,90 5,23 58,132 76,155 15,19 18,18 131,-40 63,-32 117,-62 120,-67 12,-20 104,8 104,32 0,5 -24,21 -52,35 -29,15 -80,41 -113,59 -33,18 -109,58 -170,90 -146,77 -144,75 -117,129 12,24 22,51 22,60 0,9 11,24 25,33 13,9 27,24 30,35 9,28 31,24 97,-21 33,-22 62,-40 64,-40 2,0 33,-20 70,-45 36,-25 67,-45 68,-45 2,0 31,-18 64,-40 57,-39 98,-49 136,-34 29,11 17,32 -36,66 -29,18 -58,35 -63,38 -6,3 -49,30 -95,61 -47,31 -118,77 -157,103 -40,26 -73,51 -73,56 0,29 127,230 145,229 21,0 135,-100 135,-118 0,-11 -12,-33 -26,-50 -31,-38 -27,-56 16,-65 91,-18 201,5 254,52 25,23 56,86 56,115 0,37 9,38 53,6 42,-30 98,-38 127,-19 13,9 9,16 -20,41 -19,16 -53,42 -75,56 -22,15 -104,74 -182,132 -111,82 -143,111 -143,128 0,13 4,23 8,23 5,0 17,15 27,34 16,29 17,37 6,50 -17,21 -38,20 -55,-1 z m 68,-267 c 92,-66 115,-93 116,-135 0,-35 -21,-103 -39,-125 -39,-45 -148,-76 -137,-38 29,102 29,100 14,121 -30,43 -105,91 -142,91 -20,0 -36,5 -36,11 0,6 21,40 47,75 32,43 54,64 67,64 12,0 61,-29 110,-64 z"
       id="path43" />
    <path
       d="m 11465,10430 c -17,-18 -16,-21 27,-82 24,-35 72,-103 106,-151 34,-48 62,-94 62,-101 0,-8 -26,-31 -57,-52 -32,-21 -84,-57 -115,-81 -65,-50 -92,-53 -147,-19 -44,28 -75,91 -65,134 29,118 157,119 205,2 l 10,-24 24,29 c 31,38 31,44 -4,91 -47,66 -68,79 -121,79 -55,0 -72,-11 -115,-80 -69,-108 -58,-241 23,-284 29,-15 28,-45 -1,-64 -24,-16 -56,-101 -43,-114 3,-4 28,8 54,27 26,18 74,52 108,75 33,23 81,56 105,74 141,102 171,121 188,121 22,0 75,-69 115,-150 15,-30 36,-68 46,-85 11,-16 23,-37 27,-45 4,-8 19,-36 35,-61 33,-54 36,-84 9,-99 -41,-21 -59,-12 -96,51 -19,33 -35,63 -35,67 0,4 -11,20 -25,35 -28,29 -70,36 -97,15 -30,-25 -77,-137 -86,-202 -4,-37 -1,-42 57,-96 33,-31 61,-61 61,-66 0,-17 -61,-74 -87,-80 -77,-20 -153,80 -153,200 0,50 20,139 41,178 15,29 10,48 -11,48 -13,0 -22,-9 -26,-27 -3,-16 -13,-47 -21,-71 -11,-28 -16,-80 -16,-155 -1,-99 2,-117 22,-154 26,-49 71,-90 107,-99 30,-8 75,10 102,39 30,33 68,108 76,148 6,34 2,42 -44,95 -42,50 -50,65 -50,99 0,49 23,85 54,85 29,0 36,-10 130,-178 16,-29 34,-52 39,-52 6,0 34,14 64,30 29,17 57,30 63,30 14,0 54,-66 85,-141 l 27,-63 -28,-23 c -16,-13 -32,-23 -37,-23 -7,0 -130,-57 -287,-134 -71,-34 -88,-47 -104,-79 -26,-54 -11,-64 50,-34 27,14 83,40 124,60 189,88 257,120 284,133 16,7 31,12 35,10 9,-7 34,-60 86,-186 53,-130 69,-165 92,-214 14,-29 15,-37 4,-50 -16,-19 -45,-21 -59,-3 -5,6 -20,37 -32,67 -46,113 -63,142 -94,161 -37,23 -62,24 -107,5 -40,-17 -77,-57 -101,-109 -23,-48 -24,-190 -3,-227 27,-48 19,-74 -40,-126 -65,-57 -71,-70 -43,-85 18,-10 25,-7 50,22 97,112 91,108 117,85 24,-21 74,-29 92,-14 25,20 41,91 29,123 -10,27 -13,27 -63,21 -51,-6 -54,-5 -77,26 -20,27 -24,45 -24,105 -1,84 15,110 77,120 32,5 41,1 72,-30 19,-19 35,-43 35,-52 0,-9 6,-29 13,-43 15,-29 37,-79 56,-125 15,-38 34,-42 84,-18 51,25 75,20 84,-18 3,-14 12,-35 19,-45 10,-14 10,-23 3,-33 -6,-7 -9,-25 -6,-40 16,-77 25,-110 36,-131 23,-42 11,-64 -44,-79 -95,-26 -110,-31 -126,-37 -9,-4 -26,1 -39,12 -22,18 -23,20 -7,43 37,51 8,106 -41,80 -18,-9 -204,-309 -216,-349 -8,-25 17,-48 32,-30 12,15 43,71 83,148 48,91 45,90 78,50 28,-33 32,-35 89,-33 33,1 74,9 90,17 17,9 39,16 48,16 10,0 29,14 44,32 27,32 50,32 50,-1 0,-10 6,-34 14,-52 7,-19 16,-62 20,-96 l 7,-61 -48,-15 c -26,-8 -84,-22 -128,-31 -44,-10 -103,-24 -131,-32 -28,-8 -60,-14 -72,-14 -43,0 -101,-32 -123,-67 -28,-45 -16,-56 41,-38 52,16 128,35 185,45 47,9 120,26 191,46 83,23 103,19 120,-21 7,-19 14,-44 14,-55 0,-24 41,-28 59,-6 12,14 3,84 -18,139 -6,16 -11,48 -11,72 0,25 -6,62 -14,82 -7,21 -21,65 -31,98 -10,33 -24,75 -31,93 -8,18 -14,42 -14,53 0,11 -5,29 -11,40 -6,11 -17,45 -25,76 -11,43 -12,59 -2,70 9,11 8,22 -5,49 -27,56 -160,371 -219,519 -11,28 -24,54 -29,60 -15,15 -10,49 9,66 71,64 155,180 173,239 13,42 2,86 -29,123 -22,25 -36,21 -49,-13 -9,-25 -8,-37 7,-68 16,-33 17,-45 8,-78 -17,-57 -116,-184 -144,-184 -7,0 -22,21 -34,48 -45,96 -82,168 -101,197 -10,17 -22,37 -26,45 -8,18 -119,208 -133,230 -6,8 -13,22 -17,30 -17,39 -46,70 -66,70 -16,0 -18,3 -9,12 20,20 14,34 -40,110 -51,71 -97,137 -208,295 -81,115 -84,117 -115,83 z"
       id="path45" />
    <path
       d="m 956,7118 c -26,-92 -70,-228 -80,-248 -12,-25 -14,-25 -161,-30 -98,-3 -150,-9 -152,-16 -2,-7 13,-22 34,-35 49,-30 190,-136 198,-149 7,-11 -14,-82 -41,-148 -8,-18 -14,-39 -14,-47 0,-8 -8,-30 -17,-50 -13,-26 -14,-38 -5,-47 8,-8 24,-1 64,29 155,116 182,133 202,127 12,-4 64,-39 116,-79 52,-39 103,-74 114,-78 16,-7 18,-3 12,30 -4,21 -13,54 -20,73 -36,95 -62,188 -54,194 107,83 210,156 218,156 6,0 10,8 8,18 -3,15 -21,18 -152,22 l -148,5 -15,40 c -8,22 -18,54 -23,70 -10,37 -28,89 -48,138 -15,37 -30,47 -36,25 z"
       id="path47" />
    <path
       d="m 12486,7096 c -9,-19 -16,-41 -16,-50 0,-8 -6,-30 -14,-48 -7,-18 -23,-60 -33,-93 l -20,-60 -148,-5 c -88,-3 -150,-9 -152,-15 -2,-6 49,-49 112,-95 114,-84 115,-85 110,-120 -3,-19 -12,-51 -19,-70 -22,-59 -37,-103 -50,-153 -13,-46 -13,-47 8,-41 11,4 64,39 116,79 52,40 104,75 116,79 15,4 49,-15 136,-79 64,-47 121,-85 128,-85 13,0 10,21 -10,80 -27,74 -38,107 -55,159 l -18,55 39,34 c 21,18 76,59 122,90 45,31 81,61 79,66 -2,7 -61,13 -152,16 -147,5 -149,5 -161,30 -10,20 -54,156 -80,248 -6,22 -21,13 -38,-22 z"
       id="path49" />
    <path
       d="m 1130,5903 c -25,-1 -92,-9 -150,-18 -58,-8 -151,-20 -208,-26 -119,-14 -136,-23 -126,-63 l 7,-28 81,7 c 44,3 126,12 181,20 55,7 139,19 187,25 48,6 95,13 103,16 29,11 11,77 -19,72 -6,-1 -31,-3 -56,-5 z"
       id="path51" />
    <path
       d="m 12635,5824 c -55,-7 -162,-21 -238,-31 -76,-9 -142,-22 -147,-28 -4,-5 -11,-22 -15,-37 -7,-26 -3,-29 71,-64 87,-40 129,-59 219,-99 106,-46 129,-57 157,-71 14,-8 33,-14 41,-14 25,0 32,-22 12,-36 -10,-7 -38,-16 -64,-19 -25,-4 -72,-15 -104,-25 -64,-21 -83,-18 -93,13 -10,34 -40,57 -99,78 -66,23 -85,24 -131,4 -42,-17 -73,-52 -74,-81 0,-12 -6,-39 -14,-61 -8,-22 -16,-61 -17,-88 l -4,-48 80,-19 c 44,-10 109,-25 145,-32 36,-8 101,-22 145,-31 44,-9 100,-21 123,-26 30,-7 48,-6 57,1 16,13 25,45 16,57 -5,8 -85,27 -198,49 -28,5 -31,45 -7,65 18,15 80,34 159,48 28,5 57,12 66,16 21,8 39,48 39,84 0,16 7,34 15,41 8,7 15,24 15,39 0,23 -8,30 -56,51 l -56,25 4,73 c 3,40 8,76 12,80 4,4 35,9 69,12 61,5 61,5 68,40 4,19 5,38 3,42 -7,11 -81,8 -199,-8 z m -47,-129 c 4,-51 -9,-61 -60,-45 -24,7 -48,18 -55,22 -6,5 -23,12 -37,16 -43,12 -29,27 31,33 104,11 118,8 121,-26 z m -206,-300 c 29,-27 30,-54 3,-121 l -13,-32 -64,18 c -34,9 -63,21 -63,26 2,37 20,102 33,117 22,25 72,22 104,-8 z"
       id="path53" />
    <path
       d="m 1120,5758 c -30,-5 -95,-15 -145,-23 -190,-30 -290,-49 -298,-55 -4,-4 -5,-19 -1,-34 6,-27 6,-27 78,-21 39,4 99,13 134,21 74,16 109,18 117,5 3,-6 -6,-16 -20,-23 -13,-7 -68,-40 -121,-73 -52,-33 -108,-67 -122,-76 -22,-13 -27,-23 -27,-55 v -39 l 55,3 c 51,2 133,14 290,43 36,7 96,14 135,16 74,5 85,12 85,55 0,45 14,45 -262,-6 -121,-22 -111,-8 72,104 166,101 172,108 154,154 -7,18 -36,19 -124,4 z"
       id="path55" />
    <path
       d="m 1250,5430 c -14,-5 -50,-15 -80,-24 -30,-8 -80,-22 -110,-31 -30,-8 -80,-22 -110,-31 -30,-8 -75,-21 -100,-29 -25,-7 -58,-16 -74,-20 -25,-5 -28,-9 -23,-38 20,-118 50,-183 99,-212 27,-16 49,-20 123,-19 133,2 242,42 321,119 42,40 44,44 44,99 0,32 -7,81 -16,110 -28,88 -31,90 -74,76 z m -15,-130 c 24,-46 19,-76 -18,-111 -38,-36 -83,-54 -189,-76 -68,-14 -81,-15 -105,-2 -27,14 -68,91 -60,112 4,11 57,30 177,64 30,9 71,21 90,28 61,22 88,19 105,-15 z"
       id="path57" />
    <path
       d="m 12079,5056 c -11,-17 -18,-38 -17,-46 2,-8 112,-87 246,-177 242,-162 243,-163 252,-137 17,44 11,59 -36,89 -25,16 -47,32 -50,36 -4,8 33,129 43,139 2,3 34,7 70,10 52,4 69,9 79,26 11,16 12,24 1,37 -10,14 -45,19 -222,27 -115,6 -241,14 -279,19 l -69,7 z m 269,-72 c 59,-7 71,-21 53,-60 -16,-36 -37,-39 -75,-10 -19,14 -39,26 -44,26 -14,0 -53,46 -45,54 4,4 19,5 33,2 14,-3 49,-8 78,-12 z"
       id="path59" />
    <path
       d="m 1325,5046 c -16,-8 -77,-28 -135,-46 -58,-18 -121,-38 -140,-45 -19,-7 -69,-24 -110,-37 -62,-19 -76,-27 -78,-46 -2,-13 2,-30 9,-38 16,-19 21,-18 159,31 19,7 82,27 140,45 58,17 120,38 138,46 18,8 41,14 51,14 10,0 29,8 42,19 21,16 22,22 11,45 -13,29 -39,33 -87,12 z"
       id="path61" />
    <path
       d="m 1325,4820 c -44,-3 -127,-12 -185,-19 -58,-6 -134,-15 -170,-19 -58,-6 -65,-10 -68,-30 -6,-40 14,-52 88,-52 h 68 l 17,-47 c 31,-88 30,-94 -20,-131 -40,-29 -46,-38 -43,-65 6,-58 31,-47 229,101 103,77 200,148 217,157 42,25 53,54 36,88 -16,30 -14,30 -169,17 z m -5,-93 c 0,-16 -94,-87 -115,-87 -19,0 -48,44 -43,67 2,14 16,19 58,24 93,10 100,9 100,-4 z"
       id="path63" />
    <path
       d="m 12021,4766 c -34,-12 -91,-70 -91,-92 0,-6 -9,-32 -21,-58 -35,-80 -30,-85 121,-141 19,-7 71,-27 115,-45 44,-18 98,-39 120,-47 22,-8 55,-21 73,-29 52,-22 81,-18 93,14 6,15 17,41 25,57 19,43 27,100 20,139 -16,83 -139,165 -306,202 -77,17 -103,17 -149,0 z m 150,-82 c 73,-22 137,-52 177,-81 28,-21 32,-29 32,-72 0,-64 -27,-101 -61,-84 -23,10 -75,31 -149,58 -107,40 -153,61 -157,71 -10,27 14,80 47,102 39,26 43,27 111,6 z"
       id="path65" />
    <path
       d="m 1510,4564 c -14,-8 -56,-28 -95,-45 -38,-17 -83,-37 -100,-44 -16,-8 -50,-23 -75,-34 -135,-59 -180,-83 -180,-95 0,-26 12,-46 27,-46 13,0 194,74 218,89 17,10 79,30 83,26 4,-4 -27,-40 -148,-167 -88,-94 -94,-105 -81,-141 11,-28 36,-35 69,-18 9,5 37,18 62,29 55,25 136,61 210,95 30,13 80,35 110,48 57,23 90,46 90,61 0,4 -9,17 -19,27 -19,19 -20,19 -58,1 -21,-10 -65,-30 -98,-45 -33,-14 -73,-32 -88,-40 -32,-17 -67,-20 -67,-6 0,5 47,58 105,117 122,128 133,144 117,179 -13,28 -42,32 -82,9 z"
       id="path67" />
    <path
       d="m 11859,4412 c -52,-25 -67,-39 -89,-90 -24,-55 -25,-66 -1,-118 64,-141 330,-257 463,-200 20,9 49,32 65,53 24,31 28,46 28,99 0,58 -3,65 -41,110 -71,85 -236,164 -340,164 -27,-1 -65,-8 -85,-18 z m 244,-112 c 104,-51 155,-132 115,-182 -51,-63 -105,-62 -243,3 -108,52 -148,140 -87,195 24,23 34,26 87,22 42,-3 80,-14 128,-38 z"
       id="path69" />
    <path
       d="m 1553,3977 c -222,-112 -242,-124 -242,-148 -1,-15 6,-32 14,-39 12,-10 42,1 172,67 286,145 325,166 330,180 6,16 -12,63 -24,62 -5,0 -117,-55 -250,-122 z"
       id="path71" />
    <path
       d="m 11675,4054 c -40,-20 -58,-42 -90,-103 -15,-28 -31,-54 -36,-57 -5,-3 -9,-16 -9,-29 0,-18 11,-29 53,-50 28,-14 77,-41 109,-58 31,-18 76,-43 100,-56 23,-13 66,-36 93,-51 99,-55 134,-72 142,-67 5,3 19,25 31,49 13,24 26,50 31,58 26,49 31,63 31,89 0,101 -116,207 -300,272 -66,23 -115,24 -155,3 z m 189,-104 c 136,-65 184,-118 164,-184 -6,-20 -20,-44 -30,-53 -20,-18 -29,-15 -163,61 -22,12 -67,37 -100,55 -82,45 -82,46 -61,84 43,75 90,84 190,37 z"
       id="path73" />
    <path
       d="m 1855,3970 c -3,-5 -21,-17 -38,-25 -18,-8 -57,-28 -87,-46 -30,-17 -75,-42 -100,-56 -44,-24 -68,-37 -175,-97 -74,-41 -76,-44 -63,-72 6,-13 19,-24 29,-24 15,0 75,30 139,70 41,25 130,70 140,70 10,0 -4,-38 -19,-50 -4,-3 -29,-34 -56,-70 -27,-36 -66,-85 -87,-109 -40,-46 -46,-74 -24,-103 14,-19 51,-24 60,-9 3,5 25,19 48,31 24,12 68,36 98,53 108,61 136,76 185,103 28,15 62,33 76,41 48,24 55,40 29,68 -14,15 -27,21 -34,16 -11,-8 -145,-82 -198,-109 -15,-7 -30,-17 -33,-23 -10,-15 -45,-10 -45,6 0,8 4,15 8,15 5,0 24,21 43,48 18,26 62,82 97,125 48,59 62,84 60,104 -3,29 -42,61 -53,43 z"
       id="path75" />
    <path
       d="m 11411,3669 c -26,-36 -35,-22 90,-154 41,-44 104,-111 140,-150 121,-132 144,-155 154,-155 6,0 19,14 29,31 l 18,31 -48,49 -48,49 32,45 c 18,25 32,50 32,56 0,5 11,14 24,20 18,8 30,7 54,-5 57,-29 102,-16 102,30 0,23 -11,29 -115,59 -33,10 -78,23 -100,30 -22,6 -67,20 -100,30 -33,9 -73,22 -90,27 -43,14 -135,38 -144,38 -4,0 -17,-14 -30,-31 z m 214,-102 c 71,-23 95,-37 95,-54 -1,-19 -33,-63 -46,-63 -4,0 -33,28 -65,61 -55,58 -68,89 -30,73 9,-3 30,-11 46,-17 z"
       id="path77" />
    <path
       d="m 1990,3627 c -113,-37 -167,-143 -125,-244 30,-71 12,-116 -51,-129 -21,-4 -37,0 -57,16 -33,26 -36,68 -6,116 15,25 18,38 10,52 -20,37 -43,35 -78,-5 -66,-74 -67,-158 -3,-227 38,-40 40,-41 102,-40 54,0 69,5 106,31 88,64 102,104 82,233 -12,74 -11,82 6,101 24,27 62,21 88,-14 21,-28 21,-29 -8,-98 -4,-9 1,-26 13,-40 24,-29 43,-21 79,31 41,61 41,99 -1,161 -36,54 -97,76 -157,56 z"
       id="path79" />
    <path
       d="m 11313,3528 c -27,-35 -22,-49 34,-111 68,-74 65,-70 129,-138 75,-80 91,-118 36,-90 -9,5 -37,17 -62,26 -25,9 -58,23 -75,30 -16,7 -50,20 -75,30 -25,9 -58,23 -73,31 -42,21 -66,17 -79,-10 -13,-29 -5,-54 19,-62 10,-3 36,-13 58,-21 22,-8 57,-21 78,-29 54,-20 119,-45 142,-55 11,-4 45,-18 75,-29 30,-12 70,-28 88,-36 46,-20 71,-18 93,9 29,35 29,35 -54,127 -18,19 -66,73 -106,120 -202,231 -206,236 -228,208 z"
       id="path81" />
    <path
       d="m 2190,3385 -23,-25 31,-44 32,-44 -33,-29 c -61,-51 -81,-68 -147,-117 -176,-134 -189,-146 -178,-172 17,-38 55,-30 123,26 33,27 111,88 174,136 l 114,88 32,-37 c 18,-20 39,-37 46,-37 23,0 59,30 59,48 -1,26 -162,227 -186,230 -11,2 -30,-8 -44,-23 z"
       id="path83" />
    <path
       d="m 11017,3152 c -26,-28 -21,-55 28,-148 25,-47 43,-89 40,-94 -3,-5 -20,-3 -38,4 -48,20 -98,37 -141,47 -34,9 -42,7 -62,-12 -13,-13 -24,-28 -24,-34 0,-7 46,-27 103,-45 56,-17 118,-38 137,-45 19,-8 46,-16 60,-19 14,-3 65,-39 114,-81 48,-41 94,-75 102,-75 7,0 21,12 31,26 17,26 16,27 -8,46 -135,110 -151,130 -229,292 -41,86 -80,156 -86,156 -6,0 -18,-8 -27,-18 z"
       id="path85" />
    <path
       d="m 2418,3131 c -1,-4 -41,-41 -88,-81 -47,-40 -87,-76 -90,-79 -3,-4 -51,-46 -106,-94 -56,-48 -104,-94 -107,-101 -3,-8 5,-24 18,-36 l 24,-22 143,123 c 308,266 284,242 270,273 -8,18 -19,26 -36,26 -13,0 -26,-4 -28,-9 z"
       id="path87" />
    <path
       d="m 2490,3033 -32,-28 35,-45 c 29,-36 33,-47 24,-60 -7,-8 -77,-76 -157,-150 -175,-162 -174,-160 -154,-188 8,-12 23,-22 32,-22 9,0 49,31 87,68 164,157 249,232 265,232 9,0 29,-13 45,-30 34,-36 38,-36 70,-8 34,30 27,46 -59,135 -39,41 -75,81 -79,89 -4,7 -17,18 -27,24 -16,8 -25,5 -50,-17 z"
       id="path89" />
    <path
       d="m 10686,2795 -46,-44 v -73 c 1,-61 5,-81 28,-121 43,-75 122,-155 188,-193 53,-29 70,-34 128,-34 67,0 67,0 115,48 47,47 61,81 61,150 0,22 -130,174 -155,180 -16,4 -115,-90 -115,-110 0,-8 11,-25 25,-38 22,-20 29,-22 43,-12 45,32 61,36 82,17 29,-26 26,-76 -6,-114 -22,-26 -33,-31 -70,-31 -52,0 -99,27 -160,91 -60,65 -74,93 -74,146 0,39 5,51 27,70 28,25 63,29 94,12 16,-8 25,-7 40,7 50,45 -2,94 -101,94 -55,0 -60,-2 -104,-45 z"
       id="path91" />
    <path
       d="m 2602,2657 c -175,-186 -182,-197 -182,-265 0,-60 23,-100 76,-133 53,-32 103,-25 170,24 68,50 304,298 304,319 0,19 -20,38 -41,38 -9,0 -74,-60 -145,-134 -112,-116 -182,-176 -206,-176 -3,0 -20,12 -37,26 -61,51 -46,79 158,286 l 115,117 -24,26 c -13,14 -28,25 -34,25 -6,0 -75,-69 -154,-153 z"
       id="path93" />
    <path
       d="m 2988,2528 -30,-32 36,-34 c 20,-18 36,-38 36,-44 0,-16 -65,-92 -237,-277 -52,-56 -64,-86 -41,-109 19,-19 39,-14 68,18 15,16 44,48 64,70 29,31 191,214 212,239 2,2 22,-10 45,-29 35,-28 44,-31 65,-22 13,6 26,23 30,37 5,22 -2,33 -51,78 -32,29 -78,71 -104,94 -25,24 -50,43 -54,43 -5,0 -22,-14 -39,-32 z"
       id="path95" />
    <path
       d="m 10425,2543 c -35,-9 -82,-63 -95,-109 -23,-81 17,-179 118,-286 86,-91 136,-118 218,-118 61,0 65,2 109,43 44,43 45,44 45,109 0,66 -14,110 -55,173 -26,40 -136,155 -148,155 -6,0 -18,7 -27,15 -18,16 -129,28 -165,18 z m 114,-89 c 37,-8 140,-108 171,-166 11,-22 20,-57 20,-82 0,-36 -5,-48 -26,-65 -41,-32 -83,-27 -145,18 -61,44 -118,117 -136,175 -10,32 -9,46 2,73 19,45 53,59 114,47 z"
       id="path97" />
    <path
       d="m 3225,2268 c -27,-33 -66,-80 -85,-103 -19,-23 -56,-68 -82,-101 -25,-32 -66,-83 -89,-112 -50,-62 -58,-48 90,-166 91,-73 95,-75 114,-58 50,45 48,49 -66,145 l -56,49 40,54 c 23,30 48,54 56,54 15,0 87,-51 108,-75 22,-26 51,-26 74,-1 30,32 22,52 -36,96 -86,65 -89,72 -42,125 34,39 50,43 70,19 7,-9 39,-36 72,-61 l 58,-45 25,23 c 45,42 34,61 -93,156 -35,26 -63,50 -63,55 0,4 -10,8 -22,8 -16,0 -39,-19 -73,-62 z"
       id="path99" />
    <path
       d="m 10028,2209 c -29,-16 -22,-35 38,-107 66,-78 60,-72 188,-230 60,-75 104,-122 113,-120 19,4 176,127 192,151 9,13 8,22 -4,41 -27,41 -43,39 -110,-14 -35,-27 -71,-50 -81,-49 -12,0 -49,38 -94,96 -41,53 -80,101 -85,107 -6,6 -28,34 -50,61 -61,78 -72,85 -107,64 z"
       id="path101" />
    <path
       d="m 9849,2102 c -20,-9 -44,-23 -53,-31 -26,-21 -56,-86 -56,-119 0,-90 90,-257 180,-333 166,-140 359,2 281,206 -53,139 -140,240 -239,278 -53,21 -68,21 -113,-1 z m 114,-97 c 43,-18 94,-76 136,-154 37,-70 40,-124 10,-161 -18,-21 -30,-25 -72,-24 -49,1 -53,3 -99,54 -52,58 -108,162 -108,199 0,45 46,98 86,100 6,1 27,-6 47,-14 z"
       id="path103" />
    <path
       d="m 3695,2001 c -108,-26 -234,-183 -264,-329 -16,-79 0,-133 54,-177 37,-31 49,-35 98,-35 38,0 70,7 96,21 57,30 133,118 175,204 31,64 36,84 36,145 0,82 -17,120 -65,149 -37,23 -90,31 -130,22 z m 86,-117 c 60,-64 1,-221 -115,-305 -91,-67 -171,-3 -140,111 18,69 43,110 100,168 46,45 58,52 92,52 29,0 45,-7 63,-26 z"
       id="path105" />
    <path
       d="m 9577,1934 c -14,-14 -6,-40 29,-99 20,-33 47,-80 61,-105 13,-25 33,-60 43,-77 14,-23 16,-33 7,-33 -12,0 -56,27 -67,40 -3,4 -54,43 -114,88 -112,85 -130,90 -165,56 -17,-16 -17,-16 70,-164 30,-52 58,-102 62,-110 4,-8 16,-28 27,-45 11,-16 23,-37 27,-45 5,-9 23,-41 42,-73 29,-50 37,-58 60,-55 34,4 40,41 12,79 -12,15 -21,31 -21,34 0,3 -10,22 -23,43 -44,70 -88,155 -83,160 3,3 67,-41 142,-98 76,-56 145,-105 154,-107 9,-2 27,5 41,15 l 24,20 -28,54 c -16,29 -37,67 -47,83 -11,17 -23,37 -27,45 -8,18 -89,158 -103,180 -6,8 -15,24 -20,35 -30,59 -48,80 -71,83 -14,2 -28,0 -32,-4 z"
       id="path107" />
    <path
       d="m 3978,1808 c -13,-24 -34,-63 -47,-88 -12,-25 -37,-72 -55,-105 -134,-248 -139,-258 -120,-272 41,-30 59,-17 105,74 24,47 52,91 61,97 16,10 38,1 121,-48 14,-9 22,-6 37,14 37,48 26,69 -57,111 -32,16 -43,27 -43,44 0,13 5,27 11,30 5,4 14,18 19,31 12,30 37,41 59,26 25,-18 117,-62 129,-62 15,0 42,58 35,75 -3,8 -26,25 -51,37 -26,13 -69,35 -95,50 -65,38 -81,36 -109,-14 z"
       id="path109" />
    <path
       d="m 9247,1742 c -19,-20 -22,-43 -8,-57 4,-6 25,-41 46,-79 36,-67 37,-70 19,-84 -20,-14 -110,-62 -118,-62 -2,0 -11,12 -19,28 -87,169 -84,166 -124,151 -24,-9 -32,-46 -14,-65 5,-5 32,-53 60,-106 28,-54 74,-142 103,-195 28,-54 58,-110 65,-125 8,-16 21,-28 29,-28 22,0 54,19 54,32 0,10 -30,72 -80,165 -19,34 -21,45 -11,57 15,18 91,56 113,56 8,0 26,-21 40,-47 14,-27 37,-72 52,-100 29,-55 46,-63 80,-38 17,13 17,18 6,47 -7,18 -16,38 -20,43 -11,16 -68,121 -204,380 -24,46 -45,54 -69,27 z"
       id="path111" />
    <path
       d="m 4380,1553 c -23,-48 -55,-115 -70,-148 -15,-33 -48,-103 -74,-156 -25,-52 -46,-100 -46,-107 0,-16 47,-45 60,-37 9,6 43,74 120,240 15,33 49,104 75,159 52,106 52,128 2,134 -24,3 -30,-5 -67,-85 z"
       id="path113" />
    <path
       d="m 4536,1558 c -9,-12 -16,-28 -16,-35 0,-7 -7,-29 -16,-50 -29,-67 -42,-96 -74,-178 -39,-98 -55,-134 -77,-181 -19,-40 -10,-67 24,-72 30,-4 36,6 100,173 32,82 55,125 64,119 5,-3 9,-83 9,-178 0,-155 2,-175 18,-189 24,-22 61,-22 68,1 3,9 12,31 19,47 7,17 28,66 45,110 17,44 37,94 45,110 7,17 20,50 30,75 9,25 24,59 32,76 8,17 15,47 16,65 2,31 0,34 -30,37 -25,3 -33,-1 -33,-13 0,-9 -6,-29 -14,-43 -8,-15 -22,-47 -31,-72 -9,-25 -23,-56 -30,-70 -7,-14 -15,-37 -19,-52 -3,-16 -12,-28 -20,-28 -10,0 -15,38 -21,173 -4,94 -11,178 -17,185 -16,19 -55,14 -72,-10 z"
       id="path115" />
    <path
       d="m 8819,1556 c -60,-41 -72,-69 -72,-166 1,-85 9,-118 56,-220 31,-67 124,-156 167,-161 60,-7 99,5 135,39 27,27 35,44 40,87 4,30 3,66 -2,82 -8,23 -15,28 -44,28 -32,0 -34,-2 -37,-35 -6,-82 -25,-110 -72,-110 -22,0 -39,12 -74,52 -25,29 -46,60 -46,70 0,9 -4,19 -9,22 -5,4 -17,39 -27,79 -16,68 -16,75 0,105 23,44 56,59 95,42 16,-6 32,-18 35,-26 8,-20 40,-17 59,4 10,10 17,22 17,26 0,20 -45,68 -80,86 -52,27 -98,25 -141,-4 z"
       id="path117" />
    <path
       d="m 8565,1454 c -22,-8 -54,-19 -70,-23 -17,-4 -40,-13 -52,-19 -12,-7 -31,-12 -42,-12 -31,0 -44,-33 -27,-72 16,-40 35,-93 46,-133 5,-16 25,-75 45,-130 20,-55 40,-113 44,-130 15,-58 41,-97 59,-90 9,4 31,11 47,16 75,20 200,68 203,77 2,6 -1,25 -6,44 -8,29 -12,33 -38,30 -16,-2 -62,-15 -103,-29 -71,-24 -75,-25 -88,-7 -7,10 -13,24 -13,31 0,8 -7,28 -16,45 -16,31 -16,32 10,55 15,13 35,23 45,23 35,0 111,40 111,58 0,34 -30,64 -59,59 -28,-5 -81,-23 -119,-40 -28,-13 -46,3 -60,55 -14,50 -2,62 88,91 86,28 102,45 80,85 -19,33 -34,36 -85,16 z"
       id="path119" />
    <path
       d="m 4906,1447 c -9,-7 -21,-28 -26,-47 -5,-19 -32,-100 -60,-180 -108,-308 -106,-301 -67,-322 17,-9 24,-7 39,12 10,12 21,34 24,49 3,14 12,42 19,61 8,19 15,44 17,54 5,34 31,41 84,22 27,-9 57,-20 66,-23 12,-3 22,6 38,36 l 20,41 -42,19 c -24,10 -56,24 -71,30 -38,15 -43,34 -19,89 24,54 28,54 118,21 34,-12 69,-19 77,-16 20,8 33,55 20,75 -8,14 -78,43 -148,61 -17,4 -40,13 -51,19 -16,8 -25,8 -38,-1 z"
       id="path121" />
    <path
       d="m 8220,1356 c -19,-7 -62,-21 -95,-31 -109,-31 -108,-31 -102,-72 8,-49 15,-54 63,-41 55,15 68,8 83,-43 8,-24 19,-62 26,-84 7,-22 20,-65 29,-95 58,-195 62,-205 88,-208 14,-2 31,4 38,13 14,17 16,11 -35,170 -7,22 -20,67 -30,100 -10,33 -24,77 -31,98 -26,72 -18,95 41,114 33,11 43,39 25,72 -12,24 -47,27 -100,7 z"
       id="path123" />
    <path
       d="m 5237,1318 c -48,-26 -99,-94 -129,-173 -18,-49 -22,-81 -23,-175 0,-112 1,-116 29,-153 33,-43 92,-77 133,-77 30,0 93,30 124,59 54,50 109,209 109,316 0,103 -38,174 -111,207 -52,23 -84,22 -132,-4 z m 138,-121 c 10,-14 15,-46 15,-97 0,-119 -44,-220 -107,-247 -29,-12 -37,-11 -64,2 -56,29 -71,105 -45,215 22,92 53,138 106,158 31,12 75,-3 95,-31 z"
       id="path125" />
    <path
       d="m 5572,1253 c -6,-10 -15,-48 -22,-83 -25,-138 -39,-218 -51,-280 -28,-152 -29,-164 -7,-183 12,-10 26,-16 32,-14 20,6 36,54 46,133 6,43 14,82 19,87 22,22 58,-3 80,-54 11,-28 21,-59 21,-68 0,-9 9,-43 19,-76 19,-60 19,-60 61,-63 l 42,-3 -4,33 c -8,56 -29,131 -50,178 -19,43 -19,45 -2,55 52,29 84,72 99,129 32,126 -16,187 -160,206 -33,4 -72,11 -87,15 -20,5 -29,2 -36,-12 z m 173,-122 c 41,-24 46,-71 10,-106 -22,-23 -31,-25 -73,-20 -75,10 -75,10 -69,58 3,24 11,56 17,71 9,26 13,28 48,21 20,-3 51,-14 67,-24 z"
       id="path127" />
    <path
       d="m 7794,1235 c -4,-9 1,-44 10,-80 9,-35 16,-77 16,-93 0,-15 7,-52 15,-80 11,-37 13,-57 6,-70 -10,-15 -11,-15 -17,6 -3,12 -10,22 -15,22 -5,0 -14,10 -20,23 -12,27 -18,36 -99,160 -61,95 -65,98 -94,93 -35,-7 -48,-23 -41,-51 6,-21 18,-83 40,-205 7,-41 21,-113 29,-160 9,-47 16,-97 16,-111 0,-35 21,-52 55,-43 26,6 27,9 20,53 -4,25 -11,69 -15,96 -4,28 -14,76 -21,107 -18,81 -2,95 37,33 16,-26 34,-55 39,-64 6,-9 37,-55 69,-103 50,-75 62,-88 86,-88 43,0 51,18 39,86 -30,167 -38,214 -49,269 -6,33 -15,91 -20,128 -5,38 -12,72 -15,78 -10,15 -65,10 -71,-6 z"
       id="path129" />
    <path
       d="m 5951,1172 c -6,-21 -13,-61 -16,-88 -14,-127 -53,-386 -61,-407 -6,-16 21,-47 41,-47 25,0 45,31 45,68 0,31 21,185 37,271 10,56 18,-3 23,-167 l 5,-176 28,-7 c 16,-4 34,-6 40,-3 7,2 27,53 45,112 19,59 40,121 47,137 7,17 16,43 20,60 6,25 8,27 16,13 6,-11 4,-46 -5,-100 -41,-233 -40,-252 13,-246 19,2 27,9 28,28 2,14 9,68 17,120 29,190 46,316 48,365 l 3,50 -48,8 c -33,7 -52,6 -59,-1 -12,-12 -35,-70 -45,-108 -15,-64 -70,-209 -78,-207 -6,2 -11,74 -13,168 -3,184 0,177 -79,190 l -42,7 z"
       id="path131" />
    <path
       d="m 7265,1173 c -69,-36 -99,-86 -109,-178 -14,-127 27,-289 88,-351 76,-77 201,-67 255,19 32,52 53,144 45,202 -16,131 -47,216 -95,263 -62,60 -126,76 -184,45 z m 93,-94 c 57,-20 100,-118 101,-229 1,-74 -19,-122 -61,-148 -37,-22 -74,-8 -113,44 -41,53 -65,188 -45,250 14,44 36,73 65,85 11,4 20,8 21,8 1,1 15,-4 32,-10 z"
       id="path133" />
    <path
       d="m 6466,1132 c -9,-17 -20,-47 -25,-68 -12,-46 -35,-125 -50,-171 -6,-18 -16,-48 -22,-65 -10,-31 -27,-90 -50,-168 -18,-63 -17,-65 26,-65 39,0 39,0 56,55 l 16,55 73,3 c 82,3 100,-6 100,-52 0,-57 53,-102 84,-71 14,14 12,34 -14,140 -36,148 -42,174 -56,221 -8,28 -14,59 -14,70 0,10 -9,46 -19,79 -18,57 -20,60 -54,63 -31,3 -38,-1 -51,-26 z m 65,-200 c 4,-26 10,-64 14,-85 l 8,-38 -44,3 -44,3 3,49 c 3,49 38,134 50,122 3,-4 9,-28 13,-54 z"
       id="path135" />
    <path
       d="m 6678,1153 c -30,-8 -33,-75 -4,-96 6,-4 28,-5 48,-1 29,4 38,2 46,-13 6,-10 13,-110 17,-223 4,-113 12,-213 17,-223 6,-12 18,-17 36,-15 l 27,3 v 234 235 l 55,10 c 53,11 55,12 58,45 2,20 -2,37 -10,42 -13,9 -259,10 -290,2 z"
       id="path137" />
    <path
       d="m 7017,1153 c -12,-11 -7,-204 8,-313 8,-58 15,-134 15,-171 0,-69 10,-89 46,-89 42,0 46,18 30,161 -8,74 -20,192 -26,264 -6,71 -16,135 -22,142 -11,14 -40,17 -51,6 z"
       id="path139" />
  </g>
</svg>
